<svg width="184" height="36" viewBox="0 0 184 36" fill="none" xmlns="http://www.w3.org/2000/svg">
<path d="M11.7592 4.0378C12.5563 3.57686 12.0505 2.49339 14.62 2.48609C16.425 2.48149 17.1623 3.99443 17.19 5.73536C17.2387 8.78965 16.6346 7.83667 15.2502 8.35787C13.844 8.88675 15.1631 11.0625 15.5415 11.7211C17.0829 14.4074 16.4139 10.7294 17.1408 10.1472C17.8685 9.56531 20.1329 9.87926 21.6843 12.0128C22.7651 13.4985 22.2911 17.8547 22.9604 24.0154C23.4095 28.157 19.9537 24.8652 16.8983 19.1657C16.0769 17.6332 12.8875 11.4878 12.9712 8.69293C13.0196 7.07674 14.9597 7.57415 15.2986 6.26884C15.6651 4.85952 13.4049 4.88063 12.9712 4.86298C11.8075 4.81423 9.95913 5.45518 7.34237 5.97946C6.53255 6.1418 10.8499 4.56553 11.7592 4.0378Z" stroke="#EB7D17" stroke-width="1.4" stroke-miterlimit="10"/>
<rect x="18.2949" y="22.1021" width="1.8" height="11.8978" rx="0.9" fill="#EB7D17"/>
<path d="M40.675 17.55C41.8417 17.7667 42.7833 18.1917 43.5 18.825C44.2333 19.4417 44.6 20.3917 44.6 21.675C44.6 23.4917 43.95 24.7833 42.65 25.55C41.35 26.3167 39.5417 26.7 37.225 26.7H31.825V9.4H36.55C38.9167 9.4 40.725 9.75 41.975 10.45C43.225 11.15 43.85 12.275 43.85 13.825C43.85 14.8417 43.5417 15.6667 42.925 16.3C42.325 16.9167 41.575 17.3333 40.675 17.55ZM35.5 12.05V16.425H37.3C38.2 16.425 38.8917 16.2417 39.375 15.875C39.8583 15.4917 40.1 14.9167 40.1 14.15C40.1 13.3833 39.8417 12.8417 39.325 12.525C38.8083 12.2083 38 12.05 36.9 12.05H35.5ZM37.25 23.975C38.4 23.975 39.275 23.8083 39.875 23.475C40.475 23.125 40.775 22.475 40.775 21.525C40.775 19.7917 39.7083 18.925 37.575 18.925H35.5V23.975H37.25Z" fill="#F2F3F9"/>
<path d="M51.8809 9.4V23.75H58.7309L58.3309 26.7H48.2059V9.4H51.8809Z" fill="#F2F3F9"/>
<path d="M74.2158 21C74.2158 22.1833 73.9658 23.2333 73.4658 24.15C72.9658 25.0667 72.2158 25.7917 71.2158 26.325C70.2325 26.8417 69.0325 27.1 67.6158 27.1C65.4825 27.1 63.8491 26.55 62.7158 25.45C61.5991 24.3333 61.0408 22.85 61.0408 21V9.4H64.7158V20.825C64.7158 21.9917 64.9492 22.8667 65.4158 23.45C65.8825 24.0167 66.6158 24.3 67.6158 24.3C68.6158 24.3 69.3492 24.0167 69.8158 23.45C70.2992 22.8667 70.5408 21.9917 70.5408 20.825V9.4H74.2158V21Z" fill="#F2F3F9"/>
<path d="M88.9732 9.4L88.5732 12.075H82.3232V16.575H87.7732V19.225H82.3232V24H89.0232V26.7H78.6482V9.4H88.9732Z" fill="#F2F3F9"/>
<path d="M99.3639 9C100.447 9 101.389 9.15833 102.189 9.475C102.989 9.775 103.772 10.2417 104.539 10.875L102.714 13C101.714 12.1833 100.664 11.775 99.5639 11.775C98.3305 11.775 97.3472 12.2833 96.6139 13.3C95.8972 14.3 95.5389 15.875 95.5389 18.025C95.5389 20.125 95.8972 21.6833 96.6139 22.7C97.3472 23.7 98.3389 24.2 99.5889 24.2C100.239 24.2 100.831 24.0833 101.364 23.85C101.897 23.6 102.456 23.25 103.039 22.8L104.739 24.925C104.122 25.5583 103.356 26.0833 102.439 26.5C101.539 26.9 100.539 27.1 99.4389 27.1C97.8889 27.1 96.5305 26.75 95.3639 26.05C94.1972 25.35 93.2889 24.325 92.6389 22.975C91.9889 21.6083 91.6639 19.9583 91.6639 18.025C91.6639 16.1417 91.9972 14.525 92.6639 13.175C93.3305 11.8083 94.2472 10.775 95.4139 10.075C96.5805 9.35833 97.8972 9 99.3639 9Z" fill="#F2F3F9"/>
<path d="M116.971 26.7L115.996 22.825H110.571L109.596 26.7H105.771L111.096 9.4H115.571L120.871 26.7H116.971ZM111.271 20.1H115.296L113.271 12.125L111.271 20.1Z" fill="#F2F3F9"/>
<path d="M129.02 19.925H127.145V26.7H123.47V9.4H128.87C131.186 9.4 132.928 9.83333 134.095 10.7C135.261 11.55 135.845 12.8417 135.845 14.575C135.845 15.7083 135.561 16.6417 134.995 17.375C134.445 18.1083 133.586 18.7333 132.42 19.25L136.895 26.7H132.72L129.02 19.925ZM127.145 17.325H129.07C130.053 17.325 130.795 17.1083 131.295 16.675C131.795 16.225 132.045 15.525 132.045 14.575C132.045 13.6917 131.778 13.05 131.245 12.65C130.728 12.2333 129.911 12.025 128.795 12.025H127.145V17.325Z" fill="#F2F3F9"/>
<path d="M146.758 9C147.925 9 148.958 9.18333 149.858 9.55C150.775 9.9 151.625 10.4083 152.408 11.075L150.483 13.075C149.866 12.6083 149.283 12.2667 148.733 12.05C148.2 11.8333 147.591 11.725 146.908 11.725C145.591 11.725 144.525 12.25 143.708 13.3C142.908 14.3333 142.508 15.9167 142.508 18.05C142.508 20.3 142.816 21.9167 143.433 22.9C144.066 23.8667 145.041 24.35 146.358 24.35C147.308 24.35 148.166 24.1417 148.933 23.725V19.5H146.508L146.133 16.825H152.508V25.35C151.608 25.9 150.633 26.3333 149.583 26.65C148.55 26.95 147.5 27.1 146.433 27.1C143.883 27.1 141.95 26.3333 140.633 24.8C139.316 23.2667 138.658 21.0083 138.658 18.025C138.658 16.1417 139.016 14.5167 139.733 13.15C140.45 11.7833 141.416 10.75 142.633 10.05C143.866 9.35 145.241 9 146.758 9Z" fill="#F2F3F9"/>
<path d="M163.374 9C164.957 9 166.324 9.35833 167.474 10.075C168.624 10.775 169.507 11.8 170.124 13.15C170.74 14.5 171.049 16.1333 171.049 18.05C171.049 19.9333 170.74 21.5583 170.124 22.925C169.507 24.275 168.624 25.3083 167.474 26.025C166.324 26.7417 164.957 27.1 163.374 27.1C161.79 27.1 160.415 26.75 159.249 26.05C158.099 25.3333 157.215 24.3 156.599 22.95C155.982 21.5833 155.674 19.95 155.674 18.05C155.674 16.1833 155.982 14.575 156.599 13.225C157.232 11.8583 158.124 10.8167 159.274 10.1C160.44 9.36667 161.807 9 163.374 9ZM163.374 11.75C162.107 11.75 161.149 12.25 160.499 13.25C159.865 14.25 159.549 15.85 159.549 18.05C159.549 20.25 159.874 21.85 160.524 22.85C161.174 23.85 162.124 24.35 163.374 24.35C164.64 24.35 165.59 23.8583 166.224 22.875C166.857 21.875 167.174 20.2667 167.174 18.05C167.174 15.8333 166.857 14.2333 166.224 13.25C165.59 12.25 164.64 11.75 163.374 11.75Z" fill="#F2F3F9"/>
</svg>
