<svg width="184" height="36" viewBox="0 0 184 36" fill="none" xmlns="http://www.w3.org/2000/svg">
<rect width="184" height="36" fill="white"/>
<circle cx="26" cy="18" r="15.7151" fill="black" stroke="url(#paint0_linear_1_80)" stroke-width="0.569733"/>
<path d="M25.4587 9.03778C25.4433 9.0282 25.425 9.02467 25.4072 9.02783C25.3894 9.031 25.3734 9.04066 25.3621 9.05498C25.3509 9.0693 25.3452 9.0873 25.3461 9.10559C25.347 9.12388 25.3545 9.14119 25.3672 9.15426C25.6742 9.48143 25.9077 9.87214 26.0516 10.2995C26.1955 10.7269 26.2464 11.1807 26.2007 11.6299C25.9846 13.387 23.3826 13.3139 23.5987 16.0245C23.7682 18.1329 25.262 19.7992 25.9164 20.4349C25.9372 20.4544 25.9516 20.4801 25.9576 20.5082C25.9636 20.5364 25.9609 20.5658 25.9498 20.5923C25.9387 20.6188 25.9199 20.6413 25.8958 20.6566C25.8717 20.6718 25.8435 20.6792 25.8151 20.6777C24.8822 20.6343 22.7087 20.7389 23.1664 22.7644C23.6455 24.8966 26.1248 26.5154 26.9467 27.009C26.961 27.0181 26.9779 27.0219 26.9947 27.0199C27.0114 27.0179 27.027 27.0102 27.0389 26.998C27.0507 26.9858 27.058 26.9698 27.0597 26.9528C27.0613 26.9357 27.0572 26.9186 27.0479 26.9043C26.6175 26.2134 25.5288 24.3004 26.0566 23.3508C26.5143 22.5255 27.8659 22.3183 28.6274 22.2669C28.6716 22.2647 28.7141 22.2493 28.7498 22.2228C28.7854 22.1963 28.8126 22.1597 28.8279 22.1177C28.8433 22.0756 28.8461 22.03 28.8361 21.9863C28.8261 21.9427 28.8036 21.9029 28.7715 21.8721C28.0159 21.1002 26.4344 19.2207 26.489 17.0452C26.561 14.2576 32.3064 12.8638 25.4587 9.03778Z" fill="url(#paint1_linear_1_80)"/>
<path d="M47.4616 9.82386V7.63636H62.7344V9.82386H56.331V28H53.8651V9.82386H47.4616ZM70.4105 28.3182C68.9389 28.3182 67.6695 27.9934 66.6023 27.3438C65.5417 26.6875 64.723 25.7727 64.1463 24.5994C63.5762 23.4195 63.2912 22.0473 63.2912 20.483C63.2912 18.9186 63.5762 17.5398 64.1463 16.3466C64.723 15.1468 65.5251 14.2121 66.5526 13.5426C67.5866 12.8665 68.7931 12.5284 70.1719 12.5284C70.9673 12.5284 71.7528 12.661 72.5284 12.9261C73.304 13.1913 74.0099 13.6222 74.6463 14.2188C75.2827 14.8087 75.7898 15.5909 76.1676 16.5653C76.5455 17.5398 76.7344 18.7396 76.7344 20.1648V21.1591H64.9616V19.1307H74.348C74.348 18.2689 74.1757 17.5 73.831 16.8239C73.4929 16.1477 73.009 15.6141 72.3793 15.223C71.7562 14.8319 71.0204 14.6364 70.1719 14.6364C69.2372 14.6364 68.4285 14.8684 67.7457 15.3324C67.0696 15.7898 66.5492 16.3864 66.1847 17.1222C65.8201 17.858 65.6378 18.6468 65.6378 19.4886V20.8409C65.6378 21.9943 65.8366 22.9721 66.2344 23.7741C66.6387 24.5696 67.1989 25.1761 67.9148 25.5938C68.6307 26.0047 69.4626 26.2102 70.4105 26.2102C71.027 26.2102 71.5838 26.1241 72.081 25.9517C72.5848 25.7727 73.0189 25.5076 73.3835 25.1562C73.7481 24.7983 74.0298 24.3542 74.2287 23.8239L76.4957 24.4602C76.2571 25.2292 75.8561 25.9053 75.2926 26.4886C74.7292 27.0653 74.0331 27.5161 73.2045 27.8409C72.3759 28.1591 71.4446 28.3182 70.4105 28.3182ZM80.304 28V12.7273H82.571V15.1136H82.7699C83.0881 14.2983 83.6018 13.6652 84.3111 13.2145C85.0204 12.7571 85.8722 12.5284 86.8665 12.5284C87.8741 12.5284 88.7126 12.7571 89.3821 13.2145C90.0582 13.6652 90.5852 14.2983 90.9631 15.1136H91.1222C91.5133 14.3248 92.0999 13.6984 92.8821 13.2344C93.6643 12.7637 94.6023 12.5284 95.696 12.5284C97.0616 12.5284 98.1785 12.956 99.0469 13.8111C99.9152 14.6596 100.349 15.982 100.349 17.7784V28H98.0028V17.7784C98.0028 16.6515 97.6946 15.8461 97.0781 15.3622C96.4616 14.8783 95.7358 14.6364 94.9006 14.6364C93.8267 14.6364 92.9948 14.9612 92.4048 15.6108C91.8149 16.2538 91.5199 17.0691 91.5199 18.0568V28H89.1335V17.5398C89.1335 16.6714 88.8518 15.9721 88.2884 15.4418C87.7249 14.9048 86.9991 14.6364 86.1108 14.6364C85.5009 14.6364 84.9309 14.7988 84.4006 15.1236C83.8769 15.4484 83.4527 15.8991 83.1278 16.4759C82.8097 17.0459 82.6506 17.7055 82.6506 18.4545V28H80.304ZM104.64 33.7273V12.7273H106.907V15.1534H107.185C107.358 14.8883 107.596 14.5502 107.901 14.1392C108.213 13.7216 108.657 13.3504 109.234 13.0256C109.817 12.6941 110.606 12.5284 111.6 12.5284C112.886 12.5284 114.02 12.8499 115.001 13.4929C115.982 14.1359 116.747 15.0473 117.298 16.2273C117.848 17.4072 118.123 18.7992 118.123 20.4034C118.123 22.0208 117.848 23.4228 117.298 24.6094C116.747 25.7893 115.985 26.7041 115.011 27.3537C114.036 27.9967 112.913 28.3182 111.64 28.3182C110.659 28.3182 109.873 28.1558 109.283 27.831C108.693 27.4995 108.239 27.125 107.921 26.7074C107.603 26.2831 107.358 25.9318 107.185 25.6534H106.987V33.7273H104.64ZM106.947 20.3636C106.947 21.517 107.116 22.5346 107.454 23.4162C107.792 24.2912 108.286 24.9773 108.935 25.4744C109.585 25.965 110.38 26.2102 111.322 26.2102C112.303 26.2102 113.121 25.9517 113.778 25.4347C114.441 24.911 114.938 24.2083 115.269 23.3267C115.607 22.4384 115.776 21.4508 115.776 20.3636C115.776 19.2898 115.611 18.322 115.279 17.4602C114.954 16.5919 114.46 15.9058 113.798 15.402C113.141 14.8916 112.316 14.6364 111.322 14.6364C110.367 14.6364 109.565 14.8783 108.915 15.3622C108.266 15.8395 107.775 16.509 107.444 17.3707C107.112 18.2259 106.947 19.2235 106.947 20.3636ZM132.521 16.1477L130.413 16.7443C130.28 16.393 130.085 16.0516 129.826 15.7202C129.574 15.3821 129.229 15.1037 128.792 14.8849C128.354 14.6662 127.794 14.5568 127.112 14.5568C126.177 14.5568 125.398 14.7723 124.775 15.2031C124.158 15.6274 123.85 16.1676 123.85 16.8239C123.85 17.4072 124.062 17.8679 124.487 18.206C124.911 18.544 125.574 18.8258 126.475 19.0511L128.742 19.608C130.108 19.9394 131.125 20.4465 131.795 21.1293C132.464 21.8054 132.799 22.6771 132.799 23.7443C132.799 24.6193 132.547 25.4015 132.043 26.0909C131.546 26.7803 130.85 27.3239 129.955 27.7216C129.06 28.1193 128.02 28.3182 126.833 28.3182C125.275 28.3182 123.986 27.9801 122.965 27.304C121.944 26.6278 121.298 25.6402 121.026 24.3409L123.254 23.7841C123.466 24.6061 123.867 25.2225 124.457 25.6335C125.053 26.0445 125.832 26.25 126.793 26.25C127.887 26.25 128.755 26.018 129.398 25.554C130.048 25.0833 130.373 24.5199 130.373 23.8636C130.373 23.3333 130.187 22.8892 129.816 22.5312C129.445 22.1667 128.875 21.8949 128.106 21.7159L125.56 21.1193C124.162 20.7879 123.134 20.2741 122.478 19.5781C121.828 18.8755 121.504 17.9972 121.504 16.9432C121.504 16.0814 121.746 15.3191 122.229 14.6562C122.72 13.9934 123.386 13.473 124.228 13.0952C125.076 12.7173 126.038 12.5284 127.112 12.5284C128.623 12.5284 129.809 12.8598 130.671 13.5227C131.54 14.1856 132.156 15.0606 132.521 16.1477ZM142.536 28.3182C141.157 28.3182 139.947 27.9901 138.907 27.3338C137.873 26.6776 137.064 25.7595 136.48 24.5795C135.904 23.3996 135.615 22.0208 135.615 20.4432C135.615 18.8523 135.904 17.4635 136.48 16.277C137.064 15.0904 137.873 14.169 138.907 13.5128C139.947 12.8565 141.157 12.5284 142.536 12.5284C143.915 12.5284 145.121 12.8565 146.155 13.5128C147.196 14.169 148.005 15.0904 148.581 16.277C149.165 17.4635 149.456 18.8523 149.456 20.4432C149.456 22.0208 149.165 23.3996 148.581 24.5795C148.005 25.7595 147.196 26.6776 146.155 27.3338C145.121 27.9901 143.915 28.3182 142.536 28.3182ZM142.536 26.2102C143.583 26.2102 144.445 25.9418 145.121 25.4048C145.797 24.8679 146.298 24.1619 146.623 23.2869C146.947 22.4119 147.11 21.464 147.11 20.4432C147.11 19.4223 146.947 18.4711 146.623 17.5895C146.298 16.7079 145.797 15.9953 145.121 15.4517C144.445 14.9081 143.583 14.6364 142.536 14.6364C141.489 14.6364 140.627 14.9081 139.951 15.4517C139.275 15.9953 138.774 16.7079 138.449 17.5895C138.124 18.4711 137.962 19.4223 137.962 20.4432C137.962 21.464 138.124 22.4119 138.449 23.2869C138.774 24.1619 139.275 24.8679 139.951 25.4048C140.627 25.9418 141.489 26.2102 142.536 26.2102Z" fill="black"/>
<defs>
<linearGradient id="paint0_linear_1_80" x1="10" y1="34" x2="50.9909" y2="-6.22067" gradientUnits="userSpaceOnUse">
<stop stop-color="#86D3F6"/>
<stop offset="1" stop-color="#EF83B7"/>
</linearGradient>
<linearGradient id="paint1_linear_1_80" x1="23.1039" y1="27.0205" x2="36.2443" y2="22.9088" gradientUnits="userSpaceOnUse">
<stop stop-color="#86D3F6"/>
<stop offset="1" stop-color="#EF83B7"/>
</linearGradient>
</defs>
</svg>
